<?xml version="1.0" standalone="no"?>
<!DOCTYPE svg PUBLIC "-//W3C//DTD SVG 20010904//EN"
 "http://www.w3.org/TR/2001/REC-SVG-20010904/DTD/svg10.dtd">
<svg version="1.0" xmlns="http://www.w3.org/2000/svg"
 width="512.000000pt" height="512.000000pt" viewBox="0 0 512.000000 512.000000"
 preserveAspectRatio="xMidYMid meet">

<g transform="translate(0.000000,512.000000) scale(0.100000,-0.100000)"
fill="#000000" stroke="none">
<path d="M2400 4829 c-723 -49 -1400 -461 -1780 -1084 -324 -530 -417 -1165
-259 -1765 208 -787 832 -1411 1619 -1619 383 -101 777 -101 1160 0 787 208
1411 832 1619 1619 186 704 27 1438 -434 2010 -301 374 -721 646 -1185 769
-63 16 -156 37 -206 46 -83 14 -352 36 -399 33 -11 0 -72 -4 -135 -9z m-301
-1434 c92 -32 151 -104 170 -207 39 -215 -122 -376 -337 -337 -144 26 -222
125 -222 283 0 166 110 276 276 276 39 0 90 -7 113 -15z m1156 -9 c102 -48
155 -133 155 -252 0 -158 -78 -257 -222 -283 -171 -31 -312 63 -338 224 -23
144 45 275 168 320 62 23 179 19 237 -9z m-1146 -1133 c121 -49 186 -179 160
-321 -26 -144 -125 -222 -283 -222 -166 0 -276 110 -276 276 0 154 73 251 210
280 62 14 138 8 189 -13z m1077 16 c146 -26 224 -124 224 -283 0 -166 -110
-276 -276 -276 -158 0 -257 78 -283 222 -30 167 63 312 218 338 25 4 49 8 52
9 3 0 32 -4 65 -10z"/>
</g>
</svg>
